G04 (created by PCBNEW (2013-07-07 BZR 4022)-stable) date 17/04/2014 10:18:20*
%MOIN*%
G04 Gerber Fmt 3.4, Leading zero omitted, Abs format*
%FSLAX34Y34*%
G01*
G70*
G90*
G04 APERTURE LIST*
%ADD10C,0.00590551*%
%ADD11C,0.00393701*%
%ADD12C,0.275591*%
%ADD13C,0.16*%
%ADD14C,0.01*%
G04 APERTURE END LIST*
G54D10*
G54D11*
X8421Y-2259D02*
X13940Y-2263D01*
X7234Y4429D02*
X6944Y4393D01*
X15118Y4419D02*
X7234Y4429D01*
X6943Y4394D02*
X-221Y3095D01*
X-221Y3095D02*
X-536Y3016D01*
X-536Y3016D02*
X-772Y2937D01*
X-772Y2937D02*
X-1008Y2819D01*
X-1008Y2819D02*
X-1245Y2701D01*
X-1245Y2701D02*
X-1481Y2544D01*
X-1481Y2544D02*
X-1717Y2347D01*
X-1717Y2347D02*
X-1914Y2150D01*
X-1914Y2150D02*
X-2111Y1914D01*
X-2111Y1914D02*
X-2268Y1678D01*
X-2268Y1678D02*
X-2426Y1402D01*
X-2426Y1402D02*
X-2583Y1048D01*
X-2583Y1048D02*
X-2662Y772D01*
X-2662Y772D02*
X-2701Y536D01*
X-2701Y536D02*
X-2741Y260D01*
X-2741Y260D02*
X-2741Y-211D01*
X-2741Y-211D02*
X-2731Y-388D01*
X-2731Y-388D02*
X-2711Y-516D01*
X-2711Y-516D02*
X-2691Y-634D01*
X-2691Y-634D02*
X-2662Y-772D01*
X-2662Y-772D02*
X-2632Y-880D01*
X-2632Y-880D02*
X-2583Y-1038D01*
X-2583Y-1038D02*
X-2534Y-1166D01*
X-2534Y-1166D02*
X-2504Y-1235D01*
X-2504Y-1235D02*
X-2445Y-1373D01*
X-2445Y-1373D02*
X-2367Y-1520D01*
X-2367Y-1520D02*
X-2317Y-1609D01*
X-2317Y-1609D02*
X-2258Y-1707D01*
X-2258Y-1707D02*
X-2189Y-1806D01*
X-2189Y-1806D02*
X-2150Y-1865D01*
X-2150Y-1865D02*
X-2091Y-1943D01*
X-2091Y-1943D02*
X-2002Y-2062D01*
X-2002Y-2062D02*
X-1875Y-2199D01*
X-1875Y-2199D02*
X-1776Y-2298D01*
X-1776Y-2298D02*
X-1668Y-2396D01*
X-1668Y-2396D02*
X-1560Y-2495D01*
X-1560Y-2495D02*
X-1392Y-2613D01*
X-1392Y-2613D02*
X-1274Y-2691D01*
X-1274Y-2691D02*
X-1126Y-2780D01*
X-1126Y-2780D02*
X-989Y-2849D01*
X-989Y-2849D02*
X-812Y-2928D01*
X-812Y-2928D02*
X-634Y-2997D01*
X-634Y-2997D02*
X-477Y-3046D01*
X-477Y-3046D02*
X-290Y-3095D01*
X-290Y-3095D02*
X-142Y-3125D01*
X-142Y-3125D02*
X-4Y-3144D01*
X-4Y-3144D02*
X162Y-3164D01*
X162Y-3164D02*
X329Y-3174D01*
X329Y-3174D02*
X536Y-3174D01*
X536Y-3174D02*
X703Y-3164D01*
X703Y-3164D02*
X7682Y-2327D01*
X7682Y-2327D02*
X8075Y-2278D01*
X8075Y-2278D02*
X8420Y-2258D01*
X15423Y4389D02*
X15118Y4419D01*
X14281Y-2283D02*
X13937Y-2263D01*
X14675Y-2332D02*
X14281Y-2283D01*
X21653Y-3169D02*
X14675Y-2332D01*
X21820Y-3179D02*
X21653Y-3169D01*
X22027Y-3179D02*
X21820Y-3179D01*
X22194Y-3169D02*
X22027Y-3179D01*
X22362Y-3149D02*
X22194Y-3169D01*
X22500Y-3129D02*
X22362Y-3149D01*
X22647Y-3100D02*
X22500Y-3129D01*
X22834Y-3051D02*
X22647Y-3100D01*
X22992Y-3001D02*
X22834Y-3051D01*
X23169Y-2933D02*
X22992Y-3001D01*
X23346Y-2854D02*
X23169Y-2933D01*
X23484Y-2785D02*
X23346Y-2854D01*
X23631Y-2696D02*
X23484Y-2785D01*
X23750Y-2618D02*
X23631Y-2696D01*
X23917Y-2500D02*
X23750Y-2618D01*
X24025Y-2401D02*
X23917Y-2500D01*
X24133Y-2303D02*
X24025Y-2401D01*
X24232Y-2204D02*
X24133Y-2303D01*
X24360Y-2066D02*
X24232Y-2204D01*
X24448Y-1948D02*
X24360Y-2066D01*
X24507Y-1870D02*
X24448Y-1948D01*
X24547Y-1811D02*
X24507Y-1870D01*
X24616Y-1712D02*
X24547Y-1811D01*
X24675Y-1614D02*
X24616Y-1712D01*
X24724Y-1525D02*
X24675Y-1614D01*
X24803Y-1377D02*
X24724Y-1525D01*
X24862Y-1240D02*
X24803Y-1377D01*
X24891Y-1171D02*
X24862Y-1240D01*
X24940Y-1043D02*
X24891Y-1171D01*
X24990Y-885D02*
X24940Y-1043D01*
X25019Y-777D02*
X24990Y-885D01*
X25049Y-639D02*
X25019Y-777D01*
X25068Y-521D02*
X25049Y-639D01*
X25088Y-393D02*
X25068Y-521D01*
X25098Y-216D02*
X25088Y-393D01*
X25098Y255D02*
X25098Y-216D01*
X25059Y531D02*
X25098Y255D01*
X25019Y767D02*
X25059Y531D01*
X24940Y1043D02*
X25019Y767D01*
X24783Y1397D02*
X24940Y1043D01*
X24625Y1673D02*
X24783Y1397D01*
X24468Y1909D02*
X24625Y1673D01*
X24271Y2145D02*
X24468Y1909D01*
X24074Y2342D02*
X24271Y2145D01*
X23838Y2539D02*
X24074Y2342D01*
X23602Y2696D02*
X23838Y2539D01*
X23366Y2814D02*
X23602Y2696D01*
X23129Y2933D02*
X23366Y2814D01*
X22893Y3011D02*
X23129Y2933D01*
X22578Y3090D02*
X22893Y3011D01*
X15413Y4389D02*
X22578Y3090D01*
G54D12*
X7283Y984D03*
X0Y0D03*
X14665Y984D03*
X21948Y0D03*
G54D13*
X10925Y3149D03*
G54D10*
G36*
X24828Y-210D02*
X24820Y-364D01*
X24802Y-480D01*
X24802Y-481D01*
X24784Y-589D01*
X24757Y-715D01*
X24730Y-813D01*
X24686Y-953D01*
X24641Y-1069D01*
X24614Y-1133D01*
X24614Y-1133D01*
X24559Y-1261D01*
X24486Y-1398D01*
X24486Y-1398D01*
X24440Y-1481D01*
X24389Y-1565D01*
X24326Y-1656D01*
X24325Y-1659D01*
X24322Y-1661D01*
X24287Y-1714D01*
X24233Y-1786D01*
X24232Y-1787D01*
X24152Y-1894D01*
X24038Y-2017D01*
X23948Y-2106D01*
X23844Y-2201D01*
X23844Y-2202D01*
X23747Y-2289D01*
X23598Y-2395D01*
X23591Y-2399D01*
X23591Y-240D01*
X23558Y406D01*
X23374Y850D01*
X23179Y1018D01*
X22967Y806D01*
X22967Y1230D01*
X22799Y1425D01*
X22188Y1642D01*
X21542Y1609D01*
X21098Y1425D01*
X20930Y1230D01*
X21948Y212D01*
X22967Y1230D01*
X22967Y806D01*
X22160Y0D01*
X23179Y-1018D01*
X23374Y-850D01*
X23591Y-240D01*
X23591Y-2399D01*
X23489Y-2467D01*
X23355Y-2548D01*
X23233Y-2609D01*
X23068Y-2682D01*
X22967Y-2722D01*
X22967Y-1230D01*
X21948Y-212D01*
X21736Y-424D01*
X21736Y0D01*
X20718Y1018D01*
X20523Y850D01*
X20306Y240D01*
X20339Y-406D01*
X20523Y-850D01*
X20718Y-1018D01*
X21736Y0D01*
X21736Y-424D01*
X20930Y-1230D01*
X21098Y-1425D01*
X21708Y-1642D01*
X22355Y-1609D01*
X22799Y-1425D01*
X22967Y-1230D01*
X22967Y-2722D01*
X22904Y-2746D01*
X22757Y-2792D01*
X22586Y-2837D01*
X22453Y-2864D01*
X22326Y-2882D01*
X22172Y-2900D01*
X22019Y-2909D01*
X21827Y-2909D01*
X21700Y-2901D01*
X21686Y-2897D01*
X16307Y-2255D01*
X16307Y744D01*
X16274Y1391D01*
X16090Y1834D01*
X15895Y2002D01*
X15683Y1790D01*
X15683Y2214D01*
X15515Y2409D01*
X14905Y2626D01*
X14258Y2593D01*
X13815Y2409D01*
X13646Y2214D01*
X14665Y1196D01*
X15683Y2214D01*
X15683Y1790D01*
X14877Y984D01*
X15895Y-34D01*
X16090Y133D01*
X16307Y744D01*
X16307Y-2255D01*
X15683Y-2181D01*
X15683Y-246D01*
X14665Y772D01*
X14453Y559D01*
X14453Y984D01*
X13434Y2002D01*
X13239Y1834D01*
X13022Y1224D01*
X13056Y577D01*
X13239Y133D01*
X13434Y-34D01*
X14453Y984D01*
X14453Y559D01*
X13646Y-246D01*
X13815Y-441D01*
X14425Y-658D01*
X15072Y-624D01*
X15515Y-441D01*
X15683Y-246D01*
X15683Y-2181D01*
X14709Y-2065D01*
X14708Y-2064D01*
X14314Y-2015D01*
X14305Y-2016D01*
X14297Y-2014D01*
X13967Y-1995D01*
X13940Y-1990D01*
X11990Y-1990D01*
X11990Y3048D01*
X11948Y3463D01*
X11870Y3651D01*
X11736Y3748D01*
X11137Y3149D01*
X11736Y2550D01*
X11870Y2647D01*
X11990Y3048D01*
X11990Y-1990D01*
X11524Y-1990D01*
X11524Y2338D01*
X10925Y2937D01*
X10713Y2725D01*
X10713Y3149D01*
X10114Y3748D01*
X9979Y3651D01*
X9859Y3251D01*
X9901Y2835D01*
X9979Y2647D01*
X10114Y2550D01*
X10713Y3149D01*
X10713Y2725D01*
X10326Y2338D01*
X10423Y2203D01*
X10823Y2083D01*
X11239Y2126D01*
X11426Y2203D01*
X11524Y2338D01*
X11524Y-1990D01*
X8925Y-1990D01*
X8925Y744D01*
X8892Y1391D01*
X8708Y1834D01*
X8514Y2002D01*
X8301Y1790D01*
X8301Y2214D01*
X8133Y2409D01*
X7523Y2626D01*
X6876Y2593D01*
X6433Y2409D01*
X6265Y2214D01*
X7283Y1196D01*
X8301Y2214D01*
X8301Y1790D01*
X7495Y984D01*
X8514Y-34D01*
X8708Y133D01*
X8925Y744D01*
X8925Y-1990D01*
X8421Y-1990D01*
X8416Y-1991D01*
X8404Y-1989D01*
X8301Y-1995D01*
X8301Y-246D01*
X7283Y772D01*
X7071Y559D01*
X7071Y984D01*
X6052Y2002D01*
X5857Y1834D01*
X5641Y1224D01*
X5674Y577D01*
X5857Y133D01*
X6052Y-34D01*
X7071Y984D01*
X7071Y559D01*
X6265Y-246D01*
X6433Y-441D01*
X7043Y-658D01*
X7690Y-624D01*
X8133Y-441D01*
X8301Y-246D01*
X8301Y-1995D01*
X8060Y-2009D01*
X8050Y-2011D01*
X8042Y-2011D01*
X7648Y-2060D01*
X7627Y-2067D01*
X1642Y-2780D01*
X1642Y-240D01*
X1609Y406D01*
X1425Y850D01*
X1230Y1018D01*
X1018Y806D01*
X1018Y1230D01*
X850Y1425D01*
X240Y1642D01*
X-406Y1609D01*
X-850Y1425D01*
X-1018Y1230D01*
X0Y212D01*
X1018Y1230D01*
X1018Y806D01*
X212Y0D01*
X1230Y-1018D01*
X1425Y-850D01*
X1642Y-240D01*
X1642Y-2780D01*
X1018Y-2855D01*
X1018Y-1230D01*
X0Y-212D01*
X-212Y-424D01*
X-212Y0D01*
X-1230Y1018D01*
X-1425Y850D01*
X-1642Y240D01*
X-1609Y-406D01*
X-1425Y-850D01*
X-1230Y-1018D01*
X-212Y0D01*
X-212Y-424D01*
X-1018Y-1230D01*
X-850Y-1425D01*
X-240Y-1642D01*
X406Y-1609D01*
X850Y-1425D01*
X1018Y-1230D01*
X1018Y-2855D01*
X681Y-2895D01*
X528Y-2904D01*
X336Y-2904D01*
X186Y-2895D01*
X32Y-2877D01*
X-96Y-2859D01*
X-227Y-2833D01*
X-405Y-2786D01*
X-547Y-2741D01*
X-710Y-2678D01*
X-875Y-2604D01*
X-998Y-2543D01*
X-1130Y-2463D01*
X-1238Y-2392D01*
X-1391Y-2284D01*
X-1486Y-2197D01*
X-1487Y-2197D01*
X-1590Y-2103D01*
X-1679Y-2013D01*
X-1795Y-1889D01*
X-1875Y-1782D01*
X-1875Y-1781D01*
X-1930Y-1709D01*
X-1965Y-1656D01*
X-1967Y-1654D01*
X-1969Y-1651D01*
X-2031Y-1561D01*
X-2083Y-1476D01*
X-2129Y-1393D01*
X-2129Y-1393D01*
X-2202Y-1256D01*
X-2257Y-1129D01*
X-2257Y-1128D01*
X-2285Y-1062D01*
X-2328Y-951D01*
X-2373Y-807D01*
X-2400Y-708D01*
X-2426Y-585D01*
X-2445Y-472D01*
X-2445Y-471D01*
X-2462Y-361D01*
X-2471Y-204D01*
X-2471Y241D01*
X-2435Y491D01*
X-2435Y491D01*
X-2398Y714D01*
X-2330Y954D01*
X-2184Y1282D01*
X-2041Y1533D01*
X-1894Y1753D01*
X-1715Y1968D01*
X-1535Y2148D01*
X-1319Y2328D01*
X-1109Y2467D01*
X-888Y2578D01*
X-888Y2578D01*
X-670Y2687D01*
X-459Y2758D01*
X-161Y2832D01*
X6963Y4127D01*
X6977Y4126D01*
X7249Y4159D01*
X10564Y4153D01*
X10423Y4095D01*
X10326Y3960D01*
X10925Y3361D01*
X11524Y3960D01*
X11426Y4095D01*
X11236Y4152D01*
X15117Y4145D01*
X15126Y4147D01*
X15364Y4124D01*
X15365Y4124D01*
X22530Y2822D01*
X22539Y2822D01*
X22815Y2753D01*
X23025Y2683D01*
X23245Y2573D01*
X23246Y2573D01*
X23467Y2462D01*
X23677Y2322D01*
X23892Y2143D01*
X24072Y1963D01*
X24252Y1747D01*
X24396Y1532D01*
X24543Y1273D01*
X24686Y952D01*
X24756Y706D01*
X24792Y493D01*
X24792Y493D01*
X24828Y235D01*
X24828Y-210D01*
X24828Y-210D01*
G37*
G54D14*
X24828Y-210D02*
X24820Y-364D01*
X24802Y-480D01*
X24802Y-481D01*
X24784Y-589D01*
X24757Y-715D01*
X24730Y-813D01*
X24686Y-953D01*
X24641Y-1069D01*
X24614Y-1133D01*
X24614Y-1133D01*
X24559Y-1261D01*
X24486Y-1398D01*
X24486Y-1398D01*
X24440Y-1481D01*
X24389Y-1565D01*
X24326Y-1656D01*
X24325Y-1659D01*
X24322Y-1661D01*
X24287Y-1714D01*
X24233Y-1786D01*
X24232Y-1787D01*
X24152Y-1894D01*
X24038Y-2017D01*
X23948Y-2106D01*
X23844Y-2201D01*
X23844Y-2202D01*
X23747Y-2289D01*
X23598Y-2395D01*
X23591Y-2399D01*
X23591Y-240D01*
X23558Y406D01*
X23374Y850D01*
X23179Y1018D01*
X22967Y806D01*
X22967Y1230D01*
X22799Y1425D01*
X22188Y1642D01*
X21542Y1609D01*
X21098Y1425D01*
X20930Y1230D01*
X21948Y212D01*
X22967Y1230D01*
X22967Y806D01*
X22160Y0D01*
X23179Y-1018D01*
X23374Y-850D01*
X23591Y-240D01*
X23591Y-2399D01*
X23489Y-2467D01*
X23355Y-2548D01*
X23233Y-2609D01*
X23068Y-2682D01*
X22967Y-2722D01*
X22967Y-1230D01*
X21948Y-212D01*
X21736Y-424D01*
X21736Y0D01*
X20718Y1018D01*
X20523Y850D01*
X20306Y240D01*
X20339Y-406D01*
X20523Y-850D01*
X20718Y-1018D01*
X21736Y0D01*
X21736Y-424D01*
X20930Y-1230D01*
X21098Y-1425D01*
X21708Y-1642D01*
X22355Y-1609D01*
X22799Y-1425D01*
X22967Y-1230D01*
X22967Y-2722D01*
X22904Y-2746D01*
X22757Y-2792D01*
X22586Y-2837D01*
X22453Y-2864D01*
X22326Y-2882D01*
X22172Y-2900D01*
X22019Y-2909D01*
X21827Y-2909D01*
X21700Y-2901D01*
X21686Y-2897D01*
X16307Y-2255D01*
X16307Y744D01*
X16274Y1391D01*
X16090Y1834D01*
X15895Y2002D01*
X15683Y1790D01*
X15683Y2214D01*
X15515Y2409D01*
X14905Y2626D01*
X14258Y2593D01*
X13815Y2409D01*
X13646Y2214D01*
X14665Y1196D01*
X15683Y2214D01*
X15683Y1790D01*
X14877Y984D01*
X15895Y-34D01*
X16090Y133D01*
X16307Y744D01*
X16307Y-2255D01*
X15683Y-2181D01*
X15683Y-246D01*
X14665Y772D01*
X14453Y559D01*
X14453Y984D01*
X13434Y2002D01*
X13239Y1834D01*
X13022Y1224D01*
X13056Y577D01*
X13239Y133D01*
X13434Y-34D01*
X14453Y984D01*
X14453Y559D01*
X13646Y-246D01*
X13815Y-441D01*
X14425Y-658D01*
X15072Y-624D01*
X15515Y-441D01*
X15683Y-246D01*
X15683Y-2181D01*
X14709Y-2065D01*
X14708Y-2064D01*
X14314Y-2015D01*
X14305Y-2016D01*
X14297Y-2014D01*
X13967Y-1995D01*
X13940Y-1990D01*
X11990Y-1990D01*
X11990Y3048D01*
X11948Y3463D01*
X11870Y3651D01*
X11736Y3748D01*
X11137Y3149D01*
X11736Y2550D01*
X11870Y2647D01*
X11990Y3048D01*
X11990Y-1990D01*
X11524Y-1990D01*
X11524Y2338D01*
X10925Y2937D01*
X10713Y2725D01*
X10713Y3149D01*
X10114Y3748D01*
X9979Y3651D01*
X9859Y3251D01*
X9901Y2835D01*
X9979Y2647D01*
X10114Y2550D01*
X10713Y3149D01*
X10713Y2725D01*
X10326Y2338D01*
X10423Y2203D01*
X10823Y2083D01*
X11239Y2126D01*
X11426Y2203D01*
X11524Y2338D01*
X11524Y-1990D01*
X8925Y-1990D01*
X8925Y744D01*
X8892Y1391D01*
X8708Y1834D01*
X8514Y2002D01*
X8301Y1790D01*
X8301Y2214D01*
X8133Y2409D01*
X7523Y2626D01*
X6876Y2593D01*
X6433Y2409D01*
X6265Y2214D01*
X7283Y1196D01*
X8301Y2214D01*
X8301Y1790D01*
X7495Y984D01*
X8514Y-34D01*
X8708Y133D01*
X8925Y744D01*
X8925Y-1990D01*
X8421Y-1990D01*
X8416Y-1991D01*
X8404Y-1989D01*
X8301Y-1995D01*
X8301Y-246D01*
X7283Y772D01*
X7071Y559D01*
X7071Y984D01*
X6052Y2002D01*
X5857Y1834D01*
X5641Y1224D01*
X5674Y577D01*
X5857Y133D01*
X6052Y-34D01*
X7071Y984D01*
X7071Y559D01*
X6265Y-246D01*
X6433Y-441D01*
X7043Y-658D01*
X7690Y-624D01*
X8133Y-441D01*
X8301Y-246D01*
X8301Y-1995D01*
X8060Y-2009D01*
X8050Y-2011D01*
X8042Y-2011D01*
X7648Y-2060D01*
X7627Y-2067D01*
X1642Y-2780D01*
X1642Y-240D01*
X1609Y406D01*
X1425Y850D01*
X1230Y1018D01*
X1018Y806D01*
X1018Y1230D01*
X850Y1425D01*
X240Y1642D01*
X-406Y1609D01*
X-850Y1425D01*
X-1018Y1230D01*
X0Y212D01*
X1018Y1230D01*
X1018Y806D01*
X212Y0D01*
X1230Y-1018D01*
X1425Y-850D01*
X1642Y-240D01*
X1642Y-2780D01*
X1018Y-2855D01*
X1018Y-1230D01*
X0Y-212D01*
X-212Y-424D01*
X-212Y0D01*
X-1230Y1018D01*
X-1425Y850D01*
X-1642Y240D01*
X-1609Y-406D01*
X-1425Y-850D01*
X-1230Y-1018D01*
X-212Y0D01*
X-212Y-424D01*
X-1018Y-1230D01*
X-850Y-1425D01*
X-240Y-1642D01*
X406Y-1609D01*
X850Y-1425D01*
X1018Y-1230D01*
X1018Y-2855D01*
X681Y-2895D01*
X528Y-2904D01*
X336Y-2904D01*
X186Y-2895D01*
X32Y-2877D01*
X-96Y-2859D01*
X-227Y-2833D01*
X-405Y-2786D01*
X-547Y-2741D01*
X-710Y-2678D01*
X-875Y-2604D01*
X-998Y-2543D01*
X-1130Y-2463D01*
X-1238Y-2392D01*
X-1391Y-2284D01*
X-1486Y-2197D01*
X-1487Y-2197D01*
X-1590Y-2103D01*
X-1679Y-2013D01*
X-1795Y-1889D01*
X-1875Y-1782D01*
X-1875Y-1781D01*
X-1930Y-1709D01*
X-1965Y-1656D01*
X-1967Y-1654D01*
X-1969Y-1651D01*
X-2031Y-1561D01*
X-2083Y-1476D01*
X-2129Y-1393D01*
X-2129Y-1393D01*
X-2202Y-1256D01*
X-2257Y-1129D01*
X-2257Y-1128D01*
X-2285Y-1062D01*
X-2328Y-951D01*
X-2373Y-807D01*
X-2400Y-708D01*
X-2426Y-585D01*
X-2445Y-472D01*
X-2445Y-471D01*
X-2462Y-361D01*
X-2471Y-204D01*
X-2471Y241D01*
X-2435Y491D01*
X-2435Y491D01*
X-2398Y714D01*
X-2330Y954D01*
X-2184Y1282D01*
X-2041Y1533D01*
X-1894Y1753D01*
X-1715Y1968D01*
X-1535Y2148D01*
X-1319Y2328D01*
X-1109Y2467D01*
X-888Y2578D01*
X-888Y2578D01*
X-670Y2687D01*
X-459Y2758D01*
X-161Y2832D01*
X6963Y4127D01*
X6977Y4126D01*
X7249Y4159D01*
X10564Y4153D01*
X10423Y4095D01*
X10326Y3960D01*
X10925Y3361D01*
X11524Y3960D01*
X11426Y4095D01*
X11236Y4152D01*
X15117Y4145D01*
X15126Y4147D01*
X15364Y4124D01*
X15365Y4124D01*
X22530Y2822D01*
X22539Y2822D01*
X22815Y2753D01*
X23025Y2683D01*
X23245Y2573D01*
X23246Y2573D01*
X23467Y2462D01*
X23677Y2322D01*
X23892Y2143D01*
X24072Y1963D01*
X24252Y1747D01*
X24396Y1532D01*
X24543Y1273D01*
X24686Y952D01*
X24756Y706D01*
X24792Y493D01*
X24792Y493D01*
X24828Y235D01*
X24828Y-210D01*
M02*
