G04 (created by PCBNEW (2013-07-07 BZR 4022)-stable) date 17/04/2014 10:18:20*
%MOIN*%
G04 Gerber Fmt 3.4, Leading zero omitted, Abs format*
%FSLAX34Y34*%
G01*
G70*
G90*
G04 APERTURE LIST*
%ADD10C,0.00590551*%
%ADD11C,0.00393701*%
G04 APERTURE END LIST*
G54D10*
G54D11*
X8421Y-2259D02*
X13940Y-2263D01*
X7234Y4429D02*
X6944Y4393D01*
X15118Y4419D02*
X7234Y4429D01*
X6943Y4394D02*
X-221Y3095D01*
X-221Y3095D02*
X-536Y3016D01*
X-536Y3016D02*
X-772Y2937D01*
X-772Y2937D02*
X-1008Y2819D01*
X-1008Y2819D02*
X-1245Y2701D01*
X-1245Y2701D02*
X-1481Y2544D01*
X-1481Y2544D02*
X-1717Y2347D01*
X-1717Y2347D02*
X-1914Y2150D01*
X-1914Y2150D02*
X-2111Y1914D01*
X-2111Y1914D02*
X-2268Y1678D01*
X-2268Y1678D02*
X-2426Y1402D01*
X-2426Y1402D02*
X-2583Y1048D01*
X-2583Y1048D02*
X-2662Y772D01*
X-2662Y772D02*
X-2701Y536D01*
X-2701Y536D02*
X-2741Y260D01*
X-2741Y260D02*
X-2741Y-211D01*
X-2741Y-211D02*
X-2731Y-388D01*
X-2731Y-388D02*
X-2711Y-516D01*
X-2711Y-516D02*
X-2691Y-634D01*
X-2691Y-634D02*
X-2662Y-772D01*
X-2662Y-772D02*
X-2632Y-880D01*
X-2632Y-880D02*
X-2583Y-1038D01*
X-2583Y-1038D02*
X-2534Y-1166D01*
X-2534Y-1166D02*
X-2504Y-1235D01*
X-2504Y-1235D02*
X-2445Y-1373D01*
X-2445Y-1373D02*
X-2367Y-1520D01*
X-2367Y-1520D02*
X-2317Y-1609D01*
X-2317Y-1609D02*
X-2258Y-1707D01*
X-2258Y-1707D02*
X-2189Y-1806D01*
X-2189Y-1806D02*
X-2150Y-1865D01*
X-2150Y-1865D02*
X-2091Y-1943D01*
X-2091Y-1943D02*
X-2002Y-2062D01*
X-2002Y-2062D02*
X-1875Y-2199D01*
X-1875Y-2199D02*
X-1776Y-2298D01*
X-1776Y-2298D02*
X-1668Y-2396D01*
X-1668Y-2396D02*
X-1560Y-2495D01*
X-1560Y-2495D02*
X-1392Y-2613D01*
X-1392Y-2613D02*
X-1274Y-2691D01*
X-1274Y-2691D02*
X-1126Y-2780D01*
X-1126Y-2780D02*
X-989Y-2849D01*
X-989Y-2849D02*
X-812Y-2928D01*
X-812Y-2928D02*
X-634Y-2997D01*
X-634Y-2997D02*
X-477Y-3046D01*
X-477Y-3046D02*
X-290Y-3095D01*
X-290Y-3095D02*
X-142Y-3125D01*
X-142Y-3125D02*
X-4Y-3144D01*
X-4Y-3144D02*
X162Y-3164D01*
X162Y-3164D02*
X329Y-3174D01*
X329Y-3174D02*
X536Y-3174D01*
X536Y-3174D02*
X703Y-3164D01*
X703Y-3164D02*
X7682Y-2327D01*
X7682Y-2327D02*
X8075Y-2278D01*
X8075Y-2278D02*
X8420Y-2258D01*
X15423Y4389D02*
X15118Y4419D01*
X14281Y-2283D02*
X13937Y-2263D01*
X14675Y-2332D02*
X14281Y-2283D01*
X21653Y-3169D02*
X14675Y-2332D01*
X21820Y-3179D02*
X21653Y-3169D01*
X22027Y-3179D02*
X21820Y-3179D01*
X22194Y-3169D02*
X22027Y-3179D01*
X22362Y-3149D02*
X22194Y-3169D01*
X22500Y-3129D02*
X22362Y-3149D01*
X22647Y-3100D02*
X22500Y-3129D01*
X22834Y-3051D02*
X22647Y-3100D01*
X22992Y-3001D02*
X22834Y-3051D01*
X23169Y-2933D02*
X22992Y-3001D01*
X23346Y-2854D02*
X23169Y-2933D01*
X23484Y-2785D02*
X23346Y-2854D01*
X23631Y-2696D02*
X23484Y-2785D01*
X23750Y-2618D02*
X23631Y-2696D01*
X23917Y-2500D02*
X23750Y-2618D01*
X24025Y-2401D02*
X23917Y-2500D01*
X24133Y-2303D02*
X24025Y-2401D01*
X24232Y-2204D02*
X24133Y-2303D01*
X24360Y-2066D02*
X24232Y-2204D01*
X24448Y-1948D02*
X24360Y-2066D01*
X24507Y-1870D02*
X24448Y-1948D01*
X24547Y-1811D02*
X24507Y-1870D01*
X24616Y-1712D02*
X24547Y-1811D01*
X24675Y-1614D02*
X24616Y-1712D01*
X24724Y-1525D02*
X24675Y-1614D01*
X24803Y-1377D02*
X24724Y-1525D01*
X24862Y-1240D02*
X24803Y-1377D01*
X24891Y-1171D02*
X24862Y-1240D01*
X24940Y-1043D02*
X24891Y-1171D01*
X24990Y-885D02*
X24940Y-1043D01*
X25019Y-777D02*
X24990Y-885D01*
X25049Y-639D02*
X25019Y-777D01*
X25068Y-521D02*
X25049Y-639D01*
X25088Y-393D02*
X25068Y-521D01*
X25098Y-216D02*
X25088Y-393D01*
X25098Y255D02*
X25098Y-216D01*
X25059Y531D02*
X25098Y255D01*
X25019Y767D02*
X25059Y531D01*
X24940Y1043D02*
X25019Y767D01*
X24783Y1397D02*
X24940Y1043D01*
X24625Y1673D02*
X24783Y1397D01*
X24468Y1909D02*
X24625Y1673D01*
X24271Y2145D02*
X24468Y1909D01*
X24074Y2342D02*
X24271Y2145D01*
X23838Y2539D02*
X24074Y2342D01*
X23602Y2696D02*
X23838Y2539D01*
X23366Y2814D02*
X23602Y2696D01*
X23129Y2933D02*
X23366Y2814D01*
X22893Y3011D02*
X23129Y2933D01*
X22578Y3090D02*
X22893Y3011D01*
X15413Y4389D02*
X22578Y3090D01*
M02*
